<svg width="40" height="38" viewBox="0 0 40 38" fill="none" xmlns="http://www.w3.org/2000/svg">
<path fill-rule="evenodd" clip-rule="evenodd" d="M6.14685 16.4258C9.54659 16.4258 12.2937 19.1936 12.2937 22.619V30.8767C12.2937 34.3021 9.54659 37.07 6.14685 37.07C2.74711 37.07 0 34.3021 0 30.8767V22.619C0 19.1936 2.74711 16.4258 6.14685 16.4258Z" fill="#02664D"/>
<path fill-rule="evenodd" clip-rule="evenodd" d="M33.8334 0C37.2331 0 39.9802 2.79309 39.9802 6.24974V30.6314C39.9802 34.0881 37.2331 36.8812 33.8334 36.8812C30.4336 36.8812 27.6865 34.0881 27.6865 30.6314V6.24974C27.6865 2.79309 30.4336 0 33.8334 0Z" fill="#02664D"/>
<path fill-rule="evenodd" clip-rule="evenodd" d="M19.9901 8.67773C23.3899 8.67773 26.137 11.4193 26.137 14.8122V30.7164C26.137 34.1093 23.3899 36.8509 19.9901 36.8509C16.5904 36.8509 13.8433 34.1093 13.8433 30.7164V14.8122C13.8433 11.4193 16.5904 8.67773 19.9901 8.67773Z" fill="#02664D"/>
</svg>
